# 3ds Max Wavefront OBJ Exporter v0.99 - (c)2007 guruware
# File Created: 15.11.2023 18:26:04

mtllib L.mtl

#
# object Obstaculo_01
#

v  -19.9478 -4.4093 3.3157
v  6.4912 -4.4093 3.3586
v  6.4912 3.6505 3.3586
v  -19.9478 3.6505 3.3157
v  7.6485 -4.4093 2.9813
v  7.6485 3.6505 2.9813
v  8.8057 -4.4093 2.5033
v  8.8057 3.6505 2.5033
v  9.5981 -4.4093 1.9750
v  9.5981 3.6505 1.9750
v  10.4283 -4.4093 1.2203
v  10.4283 3.6505 1.2203
v  11.4471 -4.4093 -0.2262
v  11.4471 3.6505 -0.2262
v  12.3779 -4.4093 -2.1255
v  12.3779 3.6505 -2.1255
v  13.2962 -4.4093 -4.7795
v  13.2962 3.6505 -4.7795
v  16.2773 -4.4093 -16.4270
v  16.2773 3.6505 -16.4270
v  12.5289 -4.4093 -16.3515
v  12.5289 3.6505 -16.3515
v  10.2019 -4.4093 -5.9995
v  10.2019 3.6505 -5.9995
v  9.2975 -4.4093 -3.4338
v  9.2975 3.6505 -3.4338
v  8.3725 -4.4093 -1.5616
v  8.3725 3.6505 -1.5616
v  7.3986 -4.4093 -0.1652
v  7.3986 3.6505 -0.1652
v  6.4113 -4.4093 0.7686
v  6.4113 3.6505 0.7686
v  5.4374 -4.4093 1.3779
v  5.4374 3.6505 1.3779
v  4.3968 -4.4093 1.7780
v  4.3968 3.6505 1.7780
v  3.3917 -4.4093 2.0849
v  3.3917 3.6505 2.0849
v  -20.0448 -4.4093 2.1119
v  -20.0448 3.6505 2.1119
v  3.3648 3.6681 2.0783
v  -20.0091 3.6681 2.0665
v  -20.0092 3.6681 2.3429
v  3.4036 3.6681 2.3547
v  3.3648 -4.3917 2.0783
v  -20.0091 -4.3917 2.0665
v  3.4036 -4.3917 2.3547
v  -20.0092 -4.3917 2.3429
v  4.3603 3.6681 1.7930
v  4.4494 3.6681 2.0550
v  4.3603 -4.3917 1.7930
v  4.4494 -4.3917 2.0550
v  5.3578 3.6681 1.3991
v  5.4819 3.6681 1.6473
v  5.3578 -4.3917 1.3991
v  5.4819 -4.3917 1.6473
v  6.3389 3.6681 0.7958
v  6.5086 3.6681 1.0159
v  6.3389 -4.3917 0.7958
v  6.5086 -4.3917 1.0159
v  7.3054 3.6681 -0.1269
v  7.5161 3.6681 0.0542
v  7.3054 -4.3917 -0.1269
v  7.5161 -4.3917 0.0542
v  8.2560 3.6681 -1.4822
v  8.4948 3.6681 -1.3413
v  8.2560 -4.3917 -1.4822
v  8.4948 -4.3917 -1.3413
v  9.1843 3.6681 -3.3820
v  9.4397 3.6681 -3.2751
v  9.1843 -4.3917 -3.3820
v  9.4397 -4.3917 -3.2751
v  10.0833 3.6681 -5.9371
v  10.3467 3.6681 -5.8530
v  10.0833 -4.3917 -5.9371
v  10.3467 -4.3917 -5.8530
v  12.5079 3.6681 -16.3059
v  12.7736 3.6681 -16.3042
v  12.5079 -4.3917 -16.3059
v  12.7736 -4.3917 -16.3042
v  6.4809 3.6703 3.3513
v  -20.0655 3.6703 3.3395
v  -20.0657 3.6703 3.6159
v  6.5197 3.6703 3.6278
v  6.4809 -4.3896 3.3513
v  -20.0655 -4.3896 3.3395
v  6.5197 -4.3896 3.6278
v  -20.0657 -4.3896 3.6159
v  7.4764 3.6703 3.0660
v  7.5655 3.6703 3.3281
v  7.4764 -4.3896 3.0660
v  7.5655 -4.3896 3.3281
v  8.4739 3.6703 2.6721
v  8.5980 3.6703 2.9203
v  8.4739 -4.3896 2.6721
v  8.5980 -4.3896 2.9203
v  9.4550 3.6703 2.0688
v  9.6247 3.6703 2.2890
v  9.4550 -4.3896 2.0688
v  9.6247 -4.3896 2.2890
v  10.4215 3.6703 1.1461
v  10.6322 3.6703 1.3272
v  10.4215 -4.3896 1.1461
v  10.6322 -4.3896 1.3272
v  11.3721 3.6703 -0.2092
v  11.6109 3.6703 -0.0683
v  11.3721 -4.3896 -0.2092
v  11.6109 -4.3896 -0.0683
v  12.3004 3.6703 -2.1090
v  12.5558 3.6703 -2.0021
v  12.3004 -4.3896 -2.1090
v  12.5558 -4.3896 -2.0021
v  13.1994 3.6703 -4.6641
v  13.4628 3.6703 -4.5800
v  13.1994 -4.3896 -4.6641
v  13.4628 -4.3896 -4.5800
v  16.1357 3.6703 -16.2170
v  16.4014 3.6703 -16.2159
v  16.1357 -4.3896 -16.2170
v  16.4014 -4.3896 -16.2159
v  16.4270 3.7082 -16.3315
v  12.5108 3.6797 -16.3374
v  12.4552 3.6797 -16.0841
v  16.3723 3.7082 -16.0778
v  16.4270 -4.3516 -16.3315
v  12.5108 -4.3801 -16.3374
v  16.3723 -4.3516 -16.0778
v  12.4552 -4.3801 -16.0841
v  -20.0744 3.6820 2.0640
v  -20.0849 3.6819 3.6176
v  -19.8086 3.6819 3.6169
v  -19.7980 3.6818 2.0652
v  -20.0758 -4.3778 2.0640
v  -20.0849 -4.3779 3.6176
v  -19.7994 -4.3780 2.0652
v  -19.8086 -4.3779 3.6169
# 136 vertices

vn -0.5520 -0.5818 0.5973
vn 0.1154 -0.6733 0.7303
vn 0.1154 0.6733 0.7303
vn -0.5520 0.5818 0.5973
vn 0.2477 -0.6986 0.6712
vn 0.2477 0.6986 0.6712
vn 0.3425 -0.6857 0.6423
vn 0.3425 0.6857 0.6423
vn 0.4451 -0.6906 0.5700
vn 0.4451 0.6906 0.5700
vn 0.5473 -0.6833 0.4833
vn 0.5473 0.6833 0.4833
vn 0.6230 -0.6898 0.3689
vn 0.6230 0.6898 0.3689
vn 0.6651 -0.6936 0.2768
vn 0.6651 0.6936 0.2768
vn 0.6859 -0.6979 0.2060
vn 0.6859 0.6979 0.2060
vn 0.6470 -0.5645 -0.5126
vn 0.6470 0.5645 -0.5126
vn -0.5103 -0.5912 -0.6246
vn -0.5103 0.5912 -0.6246
vn -0.6918 0.6941 -0.1989
vn -0.6918 -0.6941 -0.1989
vn -0.6635 0.6939 -0.2797
vn -0.6635 -0.6939 -0.2797
vn -0.6226 0.6906 -0.3681
vn -0.6226 -0.6906 -0.3681
vn -0.5521 0.6849 -0.4756
vn -0.5521 -0.6849 -0.4756
vn -0.4454 0.6855 -0.5760
vn -0.4454 -0.6855 -0.5760
vn -0.3249 0.6862 -0.6508
vn -0.3249 -0.6862 -0.6508
vn -0.2328 0.6993 -0.6759
vn -0.2328 -0.6993 -0.6759
vn -0.1093 0.6755 -0.7293
vn -0.1093 -0.6755 -0.7293
vn -0.6025 -0.5733 -0.5553
vn -0.6025 0.5733 -0.5553
vn -0.0934 0.7399 -0.6662
vn -0.5771 0.5773 -0.5777
vn -0.5776 0.5774 0.5770
vn 0.1022 0.6770 0.7288
vn -0.0934 -0.7399 -0.6662
vn -0.5771 -0.5773 -0.5777
vn 0.1022 -0.6770 0.7288
vn -0.5776 -0.5774 0.5770
vn -0.2239 0.7182 -0.6589
vn 0.2309 0.6964 0.6795
vn -0.2239 -0.7181 -0.6589
vn 0.2309 -0.6964 0.6795
vn -0.3070 0.7274 -0.6138
vn 0.3246 0.6879 0.6491
vn -0.3069 -0.7274 -0.6138
vn 0.3246 -0.6879 0.6491
vn -0.4163 0.7316 -0.5399
vn 0.4453 0.6842 0.5776
vn -0.4163 -0.7316 -0.5399
vn 0.4453 -0.6842 0.5776
vn -0.5183 0.7299 -0.4456
vn 0.5520 0.6856 0.4746
vn -0.5183 -0.7299 -0.4456
vn 0.5520 -0.6856 0.4746
vn -0.5930 0.7252 -0.3499
vn 0.6235 0.6899 0.3679
vn -0.5930 -0.7252 -0.3499
vn 0.6235 -0.6899 0.3679
vn -0.6397 0.7205 -0.2678
vn 0.6639 0.6943 0.2779
vn -0.6397 -0.7205 -0.2678
vn 0.6639 -0.6943 0.2779
vn -0.6666 0.7195 -0.1946
vn 0.6904 0.6950 0.2010
vn -0.6666 -0.7196 -0.1946
vn 0.6904 -0.6949 0.2010
vn -0.4996 0.5900 -0.6342
vn 0.6468 0.5666 -0.5105
vn -0.4996 -0.5900 -0.6342
vn 0.6468 -0.5666 -0.5105
vn -0.0934 0.7398 -0.6663
vn -0.5771 0.5774 -0.5776
vn -0.5777 0.5774 0.5770
vn -0.5771 -0.5774 -0.5776
vn 0.1022 -0.6771 0.7288
vn -0.5777 -0.5774 0.5770
vn -0.6669 0.7173 -0.2016
vn 0.6865 0.6971 0.2070
vn -0.6669 -0.7173 -0.2016
vn 0.6865 -0.6970 0.2070
vn -0.4937 0.5913 -0.6377
vn 0.6516 0.5657 -0.5054
vn -0.4937 -0.5913 -0.6377
vn 0.6516 -0.5657 -0.5054
vn 0.6404 0.5682 -0.5168
vn -0.5069 0.5882 -0.6301
vn -0.6432 0.5658 0.5159
vn 0.5060 0.5905 0.6287
vn 0.6421 -0.5660 -0.5171
vn -0.5047 -0.5908 -0.6295
vn 0.5081 -0.5880 0.6294
vn -0.6414 -0.5680 0.5157
vn -0.5739 0.5777 -0.5805
vn -0.5788 0.5769 0.5764
vn 0.5759 0.5779 0.5783
vn 0.5808 0.5770 -0.5742
vn -0.5746 -0.5772 -0.5802
vn -0.5785 -0.5770 0.5766
vn 0.5800 -0.5775 -0.5745
vn 0.5762 -0.5777 0.5781
# 110 vertex normals

o Obstaculo_01
g Obstaculo_01
usemtl wire_000000255
s 1
f 1//1 2//2 3//3 4//4 
s 4
f 2//2 5//5 6//6 3//3 
s 2
f 5//5 7//7 8//8 6//6 
s 4
f 7//7 9//9 10//10 8//8 
s 2
f 9//9 11//11 12//12 10//10 
s 4
f 11//11 13//13 14//14 12//12 
s 2
f 13//13 15//15 16//16 14//14 
s 4
f 15//15 17//17 18//18 16//16 
s 2
f 17//17 19//19 20//20 18//18 
s 4
f 19//19 21//21 22//22 20//20 
s 2
f 21//21 23//23 24//24 22//22 
s 4
f 23//23 25//25 26//26 24//24 
s 2
f 25//25 27//27 28//28 26//26 
s 4
f 27//27 29//29 30//30 28//28 
s 2
f 29//29 31//31 32//32 30//30 
s 4
f 31//31 33//33 34//34 32//32 
s 2
f 33//33 35//35 36//36 34//34 
s 4
f 35//35 37//37 38//38 36//36 
s 2
f 37//37 39//39 40//40 38//38 
s 4
f 39//39 1//1 4//4 40//40 
s 16
f 17//17 15//15 13//13 11//11 9//9 7//7 5//5 2//2 1//1 39//39 37//37 35//35 33//33 31//31 29//29 27//27 25//25 23//23 21//21 19//19 
f 18//18 20//20 22//22 24//24 26//26 28//28 30//30 32//32 34//34 36//36 38//38 40//40 4//4 3//3 6//6 8//8 10//10 12//12 14//14 16//16 
s 1
f 41//41 42//42 43//43 44//44 
s 2
f 45//45 46//46 42//42 41//41 
s 1
f 47//47 48//48 46//46 45//45 
s 2
f 44//44 43//43 48//48 47//47 
s 1
f 49//49 41//41 44//44 50//50 
s 2
f 51//51 45//45 41//41 49//49 
s 1
f 52//52 47//47 45//45 51//51 
s 2
f 50//50 44//44 47//47 52//52 
s 1
f 53//53 49//49 50//50 54//54 
s 2
f 55//55 51//51 49//49 53//53 
s 1
f 56//56 52//52 51//51 55//55 
s 2
f 54//54 50//50 52//52 56//56 
s 1
f 57//57 53//53 54//54 58//58 
s 2
f 59//59 55//55 53//53 57//57 
s 1
f 60//60 56//56 55//55 59//59 
s 2
f 58//58 54//54 56//56 60//60 
s 1
f 61//61 57//57 58//58 62//62 
s 2
f 63//63 59//59 57//57 61//61 
s 1
f 64//64 60//60 59//59 63//63 
s 2
f 62//62 58//58 60//60 64//64 
s 1
f 65//65 61//61 62//62 66//66 
s 2
f 67//67 63//63 61//61 65//65 
s 1
f 68//68 64//64 63//63 67//67 
s 2
f 66//66 62//62 64//64 68//68 
s 1
f 69//69 65//65 66//66 70//70 
s 2
f 71//71 67//67 65//65 69//69 
s 1
f 72//72 68//68 67//67 71//71 
s 2
f 70//70 66//66 68//68 72//72 
s 1
f 73//73 69//69 70//70 74//74 
s 2
f 75//75 71//71 69//69 73//73 
s 1
f 76//76 72//72 71//71 75//75 
s 2
f 74//74 70//70 72//72 76//76 
s 1
f 77//77 73//73 74//74 78//78 
s 2
f 79//79 75//75 73//73 77//77 
s 1
f 80//80 76//76 75//75 79//79 
s 2
f 78//78 74//74 76//76 80//80 
s 4
f 46//46 48//48 43//43 42//42 
f 78//78 80//80 79//79 77//77 
s 1
f 81//81 82//82 83//83 84//44 
s 2
f 85//45 86//84 82//82 81//81 
s 1
f 87//85 88//86 86//84 85//45 
s 2
f 84//44 83//83 88//86 87//85 
s 1
f 89//49 81//81 84//44 90//50 
s 2
f 91//51 85//45 81//81 89//49 
s 1
f 92//52 87//85 85//45 91//51 
s 2
f 90//50 84//44 87//85 92//52 
s 1
f 93//53 89//49 90//50 94//54 
s 2
f 95//55 91//51 89//49 93//53 
s 1
f 96//56 92//52 91//51 95//55 
s 2
f 94//54 90//50 92//52 96//56 
s 1
f 97//57 93//53 94//54 98//58 
s 2
f 99//59 95//55 93//53 97//57 
s 1
f 100//60 96//56 95//55 99//59 
s 2
f 98//58 94//54 96//56 100//60 
s 1
f 101//61 97//57 98//58 102//62 
s 2
f 103//63 99//59 97//57 101//61 
s 1
f 104//64 100//60 99//59 103//63 
s 2
f 102//62 98//58 100//60 104//64 
s 1
f 105//65 101//61 102//62 106//66 
s 2
f 107//67 103//63 101//61 105//65 
s 1
f 108//68 104//64 103//63 107//67 
s 2
f 106//66 102//62 104//64 108//68 
s 1
f 109//69 105//65 106//66 110//70 
s 2
f 111//71 107//67 105//65 109//69 
s 1
f 112//72 108//68 107//67 111//71 
s 2
f 110//70 106//66 108//68 112//72 
s 1
f 113//87 109//69 110//70 114//88 
s 2
f 115//89 111//71 109//69 113//87 
s 1
f 116//90 112//72 111//71 115//89 
s 2
f 114//88 110//70 112//72 116//90 
s 1
f 117//91 113//87 114//88 118//92 
s 2
f 119//93 115//89 113//87 117//91 
s 1
f 120//94 116//90 115//89 119//93 
s 2
f 118//92 114//88 116//90 120//94 
s 4
f 86//84 88//86 83//83 82//82 
f 118//92 120//94 119//93 117//91 
s 1
f 121//95 122//96 123//97 
f 123//97 124//98 121//95 
s 2
f 125//99 126//100 122//96 
f 122//96 121//95 125//99 
s 1
f 127//101 128//102 126//100 
f 126//100 125//99 127//101 
s 2
f 124//98 123//97 128//102 
f 128//102 127//101 124//98 
s 4
f 126//100 128//102 123//97 
f 123//97 122//96 126//100 
f 124//98 127//101 125//99 
f 125//99 121//95 124//98 
s 1
f 129//103 130//104 131//105 132//106 
s 2
f 133//107 134//108 130//104 129//103 
s 1
f 135//109 136//110 134//108 133//107 
s 2
f 132//106 131//105 136//110 135//109 
s 4
f 134//108 136//110 131//105 130//104 
f 132//106 135//109 133//107 129//103 
# 104 polygons - 12 triangles

