# 3ds Max Wavefront OBJ Exporter v0.99 - (c)2007 guruware
# File Created: 15.11.2023 18:38:02

mtllib puente.mtl

#
# object Torus003
#

v  -33.6704 3.4075 0.0832
v  -33.4156 5.1720 0.0832
v  -32.2788 5.1720 -8.5515
v  -32.5249 3.4075 -8.6175
v  -32.7193 6.4636 0.0832
v  -31.6062 6.4636 -8.3713
v  -31.7682 6.9364 0.0832
v  -30.6875 6.9364 -8.1251
v  -30.8170 6.4636 0.0832
v  -29.7688 6.4636 -7.8790
v  -30.1208 5.1720 0.0832
v  -29.0963 5.1720 -7.6987
v  -29.8659 3.4075 0.0832
v  -28.8501 3.4075 -7.6328
v  -30.1208 1.6430 0.0832
v  -29.0963 1.6430 -7.6987
v  -30.8170 0.3514 0.0832
v  -29.7688 0.3514 -7.8790
v  -31.7682 -0.1214 0.0832
v  -30.6875 -0.1214 -8.1251
v  -32.7193 0.3514 0.0832
v  -31.6062 0.3514 -8.3713
v  -33.4156 1.6430 0.0832
v  -32.2788 1.6430 -8.5515
v  -28.9459 3.9361 -16.5978
v  -29.1666 2.1717 -16.7252
v  -28.3429 5.2278 -16.2496
v  -27.5192 5.7006 -15.7741
v  -26.6955 5.2278 -15.2985
v  -26.0925 3.9361 -14.9504
v  -25.8718 2.1717 -14.8229
v  -26.0925 0.4072 -14.9504
v  -26.6955 -0.8845 -15.2985
v  -27.5192 -1.3573 -15.7741
v  -28.3429 -0.8845 -16.2496
v  -28.9459 0.4072 -16.5978
v  -21.3143 0.1522 -21.1775
v  -21.1341 1.9167 -20.9973
v  -21.8066 -1.1395 -21.6698
v  -22.4792 -1.6123 -22.3424
v  -23.1517 -1.1395 -23.0149
v  -23.6441 0.1522 -23.5073
v  -23.8243 1.9167 -23.6875
v  -15.0872 -0.9973 -25.9557
v  -14.9597 0.7672 -25.7350
v  -15.4353 -2.2890 -26.5587
v  -15.9109 -2.7618 -27.3824
v  -16.3864 -2.2890 -28.2061
v  -16.7346 -0.9973 -28.8091
v  -16.8620 0.7672 -29.0298
v  -16.7346 2.5316 -28.8091
v  -8.6883 2.1601 -32.1420
v  -8.7543 0.3956 -32.3882
v  -16.3864 3.8233 -28.2061
v  -8.5081 3.4518 -31.4694
v  -15.9109 4.2961 -27.3824
v  -8.2619 3.9245 -30.5507
v  -15.4353 3.8233 -26.5587
v  -8.0158 3.4518 -29.6320
v  -15.0872 2.5316 -25.9557
v  -7.8355 2.1601 -28.9595
v  -7.7696 0.3956 -28.7133
v  -7.8355 -1.3688 -28.9595
v  -8.0158 -2.2890 -29.6320
v  -8.2619 -2.7618 -30.5507
v  -8.5081 -2.6605 -31.4694
v  -8.6883 -1.3688 -32.1420
v  -0.0536 2.1601 -33.2788
v  -0.0536 0.3956 -33.5336
v  -0.0536 3.4518 -32.5825
v  -0.0536 3.9245 -31.6314
v  -0.0536 3.4518 -30.6802
v  -0.0536 2.1601 -29.9840
v  -0.0536 0.3956 -29.7291
v  -0.0536 -1.3688 -29.9840
v  -0.0536 -2.6605 -30.6802
v  -0.0536 -3.1333 -31.6314
v  -0.0536 -2.6605 -32.5825
v  -0.0536 -1.3688 -33.2788
v  7.7284 -1.3688 -28.9595
v  7.6624 0.3956 -28.7133
v  7.9086 -2.6605 -29.6320
v  8.1548 -3.1333 -30.5507
v  8.4009 -2.6605 -31.4694
v  8.5811 -1.3688 -32.1420
v  8.6471 0.3956 -32.3882
v  14.9800 -1.3688 -25.9557
v  14.8526 0.3956 -25.7350
v  15.3281 -2.6605 -26.5587
v  15.8037 -3.1333 -27.3824
v  16.2793 -2.6605 -28.2061
v  16.6274 -1.3688 -28.8091
v  16.7548 0.3956 -29.0298
v  21.2071 -1.3688 -21.1775
v  21.0269 0.3956 -20.9973
v  21.6995 -2.6605 -21.6698
v  22.1107 -3.1169 -22.3719
v  23.0446 -2.6605 -23.0149
v  23.5369 -1.3688 -23.5073
v  23.7171 0.3956 -23.6875
v  21.0269 0.3956 21.1637
v  21.2071 -1.3688 21.3439
v  14.9800 -1.3688 26.1222
v  14.8526 0.3956 25.9014
v  21.6995 -2.6605 21.8363
v  15.3282 -2.6605 26.7251
v  22.3720 -3.1333 22.5088
v  15.8037 -3.1333 27.5488
v  23.0446 -2.6605 23.1814
v  16.2793 -2.6605 28.3725
v  23.5369 -1.3688 23.6737
v  16.6274 -1.3688 28.9755
v  23.7171 0.3956 23.8539
v  16.7548 0.3956 29.1962
v  7.7284 -1.3688 29.1259
v  7.6624 0.3956 28.8797
v  7.9086 -2.6605 29.7984
v  8.1548 -3.1333 30.7171
v  8.4009 -2.6605 31.6359
v  8.5811 -1.3688 32.3084
v  8.6471 0.3956 32.5546
v  -0.0536 -1.3688 30.1504
v  -0.0536 0.3956 29.8955
v  -0.0536 -2.6605 30.8467
v  -0.0536 -3.1333 31.7978
v  -0.0536 -2.6605 32.7489
v  -0.0536 -1.3688 33.4452
v  -0.0536 0.3956 33.7001
v  -0.0536 2.1601 33.4452
v  -8.6883 2.1601 32.3084
v  -8.7542 0.3956 32.5546
v  -0.0536 3.4518 32.7489
v  -8.5081 3.4518 31.6359
v  -0.0536 3.9245 31.7978
v  -8.2619 3.9245 30.7172
v  -0.0536 3.4518 30.8467
v  -8.0157 3.4518 29.7984
v  -0.0536 2.1601 30.1504
v  -7.8355 2.1601 29.1259
v  -7.7696 0.3956 28.8797
v  -7.8355 -1.3688 29.1259
v  -8.0157 -2.2890 29.7984
v  -8.2619 -2.7618 30.7172
v  -8.5081 -2.6605 31.6359
v  -8.6883 -1.3688 32.3084
v  -16.7346 2.5316 28.9755
v  -16.8620 0.7672 29.1963
v  -16.3864 3.8233 28.3726
v  -15.9109 4.2961 27.5489
v  -15.4353 3.8233 26.7252
v  -15.0872 2.5316 26.1222
v  -14.9597 0.7672 25.9015
v  -15.0872 -0.9973 26.1222
v  -15.4353 -2.2890 26.7252
v  -15.9109 -2.7618 27.5489
v  -16.3864 -2.2890 28.3726
v  -16.7346 -0.9973 28.9755
v  -21.3143 0.1522 21.3439
v  -21.1341 1.9167 21.1637
v  -21.8066 -1.1395 21.8363
v  -22.4792 -1.6123 22.5088
v  -23.1517 -1.1395 23.1814
v  -23.6441 0.1522 23.6737
v  -23.8243 1.9167 23.8539
v  -26.0925 0.4072 15.1168
v  -25.8718 2.1717 14.9894
v  -26.6955 -0.8845 15.4650
v  -27.5192 -1.3573 15.9405
v  -28.3429 -0.8845 16.4161
v  -28.9459 0.4072 16.7642
v  -29.1666 2.1717 16.8916
v  -28.9459 3.9361 16.7642
v  -32.2788 5.1720 8.7179
v  -32.5249 3.4075 8.7839
v  -28.3429 5.2278 16.4161
v  -31.6062 6.4636 8.5377
v  -27.5192 5.7006 15.9405
v  -30.6875 6.9364 8.2916
v  -26.6955 5.2278 15.4650
v  -29.7688 6.4636 8.0454
v  -26.0925 3.9361 15.1168
v  -29.0962 5.1720 7.8652
v  -28.8501 3.4075 7.7992
v  -29.0962 1.6430 7.8652
v  -29.7688 0.3514 8.0454
v  -30.6875 -0.1214 8.2916
v  -31.6062 0.3514 8.5377
v  -32.2788 1.6430 8.7179
# 188 vertices

vn -1.0000 0.0000 0.0000
vn -0.8712 0.4909 0.0000
vn -0.8342 0.4954 -0.2424
vn -0.9658 0.0061 -0.2592
vn -0.5158 0.8567 0.0000
vn -0.4868 0.8579 -0.1642
vn -0.0216 0.9998 0.0000
vn -0.0102 0.9990 -0.0443
vn 0.4835 0.8753 -0.0000
vn 0.4736 0.8763 0.0884
vn 0.8604 0.5096 -0.0000
vn 0.8338 0.5146 0.1998
vn 1.0000 0.0000 -0.0000
vn 0.9661 0.0073 0.2582
vn 0.8604 -0.5096 -0.0000
vn 0.8283 -0.5041 0.2446
vn 0.4835 -0.8753 -0.0000
vn 0.4600 -0.8731 0.1616
vn -0.0216 -0.9998 0.0000
vn -0.0315 -0.9989 0.0337
vn -0.5158 -0.8567 0.0000
vn -0.5093 -0.8545 -0.1023
vn -0.8712 -0.4909 0.0000
vn -0.8486 -0.4861 -0.2090
vn -0.7957 0.4800 -0.3693
vn -0.8842 -0.0963 -0.4572
vn -0.4524 0.8532 -0.2595
vn 0.0201 0.9967 -0.0785
vn 0.4880 0.8639 0.1246
vn 0.8190 0.4928 0.2940
vn 0.8820 -0.0978 0.4609
vn 0.7291 -0.5135 0.4526
vn 0.3939 -0.8757 0.2793
vn -0.0427 -0.9986 0.0313
vn -0.4642 -0.8573 -0.2225
vn -0.7635 -0.4944 -0.4155
vn 0.5922 -0.5055 0.6275
vn 0.6770 -0.2588 0.6890
vn 0.3133 -0.8734 0.3729
vn -0.0480 -0.9987 0.0174
vn -0.3925 -0.8548 -0.3395
vn -0.6316 -0.4874 -0.6029
vn -0.6931 -0.2588 -0.6728
vn 0.4049 -0.5126 0.7571
vn 0.4558 -0.0889 0.8856
vn 0.2103 -0.8763 0.4335
vn -0.0430 -0.9991 0.0002
vn -0.2917 -0.8570 -0.4247
vn -0.4540 -0.4936 -0.7417
vn -0.4675 -0.0890 -0.8795
vn -0.3232 0.4898 -0.8097
vn -0.2205 0.4895 -0.8437
vn -0.2589 -0.0018 -0.9659
vn -0.1801 0.8544 -0.4874
vn -0.1242 0.8561 -0.5016
vn 0.0129 0.9994 -0.0322
vn 0.0062 0.9997 -0.0240
vn 0.2049 0.8756 0.4375
vn 0.1362 0.8748 0.4649
vn 0.3411 0.5102 0.7895
vn 0.2294 0.5079 0.8303
vn 0.2588 -0.0022 0.9659
vn 0.2022 -0.5856 0.7849
vn 0.0961 -0.9100 0.4034
vn 0.0113 -0.9960 0.0891
vn -0.1218 -0.9018 -0.4146
vn -0.2305 -0.4923 -0.8393
vn -0.1140 0.4877 -0.8655
vn -0.0437 -0.0889 -0.9951
vn -0.0678 0.8547 -0.5146
vn -0.0028 0.9998 -0.0216
vn 0.0635 0.8736 0.4825
vn 0.1126 0.5063 0.8550
vn 0.0437 -0.0889 0.9951
vn 0.0000 -0.5096 0.8604
vn -0.0112 -0.8758 0.4826
vn -0.0122 -0.9997 -0.0215
vn -0.0000 -0.8567 -0.5158
vn -0.0000 -0.4909 -0.8712
vn -0.2227 -0.5096 0.8311
vn -0.2500 -0.2588 0.9330
vn -0.1251 -0.8753 0.4670
vn 0.0056 -0.9998 -0.0208
vn 0.1335 -0.8567 -0.4982
vn 0.2255 -0.4909 -0.8415
vn 0.2500 -0.2588 -0.9330
vn -0.4302 -0.5096 0.7452
vn -0.4830 -0.2588 0.8365
vn -0.2417 -0.8753 0.4187
vn 0.0123 -0.9997 -0.0194
vn 0.2579 -0.8567 -0.4467
vn 0.4356 -0.4909 -0.7545
vn 0.4830 -0.2588 -0.8365
vn -0.5250 -0.5063 0.6841
vn -0.5884 -0.2568 0.7668
vn -0.3156 -0.8551 0.4113
vn -0.0149 -0.9997 0.0205
vn 0.3164 -0.8544 -0.4123
vn 0.5315 -0.4877 -0.6926
vn 0.5884 -0.2568 -0.7668
vn -0.5884 -0.2568 -0.7668
vn -0.5250 -0.5063 -0.6841
vn -0.4302 -0.5096 -0.7452
vn -0.4830 -0.2588 -0.8365
vn -0.2963 -0.8736 -0.3861
vn -0.2417 -0.8753 -0.4187
vn 0.0132 -0.9998 0.0173
vn 0.0108 -0.9998 0.0187
vn 0.3160 -0.8547 0.4118
vn 0.2579 -0.8567 0.4467
vn 0.5315 -0.4877 0.6926
vn 0.4356 -0.4909 0.7545
vn 0.5884 -0.2568 0.7668
vn 0.4830 -0.2588 0.8365
vn -0.2227 -0.5096 -0.8311
vn -0.2500 -0.2588 -0.9330
vn -0.1251 -0.8753 -0.4670
vn 0.0056 -0.9998 0.0208
vn 0.1335 -0.8567 0.4982
vn 0.2255 -0.4909 0.8415
vn 0.2500 -0.2588 0.9330
vn -0.0000 -0.5096 -0.8604
vn 0.0437 -0.0889 -0.9951
vn -0.0112 -0.8758 -0.4826
vn -0.0122 -0.9997 0.0215
vn 0.0000 -0.8567 0.5158
vn 0.0000 -0.4909 0.8712
vn -0.0437 -0.0889 0.9951
vn -0.1140 0.4877 0.8655
vn -0.2205 0.4895 0.8437
vn -0.2589 -0.0018 0.9659
vn -0.0678 0.8547 0.5146
vn -0.1242 0.8561 0.5016
vn -0.0028 0.9998 0.0216
vn 0.0062 0.9997 0.0240
vn 0.0635 0.8736 -0.4825
vn 0.1362 0.8748 -0.4649
vn 0.1126 0.5063 -0.8550
vn 0.2294 0.5079 -0.8303
vn 0.2588 -0.0022 -0.9659
vn 0.2022 -0.5856 -0.7849
vn 0.0961 -0.9100 -0.4034
vn 0.0113 -0.9960 -0.0891
vn -0.1218 -0.9018 0.4146
vn -0.2305 -0.4923 0.8393
vn -0.3232 0.4898 0.8097
vn -0.4675 -0.0890 0.8795
vn -0.1801 0.8544 0.4874
vn 0.0129 0.9994 0.0322
vn 0.2049 0.8756 -0.4375
vn 0.3411 0.5102 -0.7895
vn 0.4558 -0.0889 -0.8856
vn 0.4049 -0.5126 -0.7571
vn 0.2103 -0.8763 -0.4335
vn -0.0430 -0.9991 -0.0002
vn -0.2917 -0.8570 0.4247
vn -0.4540 -0.4936 0.7417
vn 0.5922 -0.5055 -0.6275
vn 0.6770 -0.2588 -0.6890
vn 0.3133 -0.8734 -0.3729
vn -0.0480 -0.9987 -0.0174
vn -0.3925 -0.8548 0.3395
vn -0.6316 -0.4874 0.6029
vn -0.6931 -0.2588 0.6728
vn 0.7291 -0.5135 -0.4526
vn 0.8820 -0.0978 -0.4609
vn 0.3939 -0.8757 -0.2793
vn -0.0427 -0.9986 -0.0313
vn -0.4642 -0.8573 0.2225
vn -0.7635 -0.4944 0.4155
vn -0.8842 -0.0963 0.4572
vn -0.7957 0.4800 0.3693
vn -0.8342 0.4954 0.2424
vn -0.9658 0.0061 0.2592
vn -0.4524 0.8532 0.2595
vn -0.4868 0.8579 0.1642
vn 0.0201 0.9967 0.0785
vn -0.0102 0.9990 0.0443
vn 0.4880 0.8639 -0.1246
vn 0.4736 0.8763 -0.0884
vn 0.8190 0.4928 -0.2940
vn 0.8338 0.5146 -0.1998
vn 0.9661 0.0073 -0.2582
vn 0.8283 -0.5041 -0.2446
vn 0.4600 -0.8731 -0.1616
vn -0.0315 -0.9989 -0.0337
vn -0.5093 -0.8545 0.1023
vn -0.8486 -0.4861 0.2090
# 188 vertex normals

vt 0.0000 0.0000 0.0000
vt 0.0833 0.0000 0.0000
vt 0.0833 0.0417 0.0000
vt 0.0000 0.0417 0.0000
vt 0.1667 0.0000 0.0000
vt 0.1667 0.0417 0.0000
vt 0.2500 0.0000 0.0000
vt 0.2500 0.0417 0.0000
vt 0.3333 0.0000 0.0000
vt 0.3333 0.0417 0.0000
vt 0.4167 0.0000 0.0000
vt 0.4167 0.0417 0.0000
vt 0.5000 0.0000 0.0000
vt 0.5000 0.0417 0.0000
vt 0.5833 0.0000 0.0000
vt 0.5833 0.0417 0.0000
vt 0.6667 0.0000 0.0000
vt 0.6667 0.0417 0.0000
vt 0.7500 0.0000 0.0000
vt 0.7500 0.0417 0.0000
vt 0.8333 0.0000 0.0000
vt 0.8333 0.0417 0.0000
vt 0.9167 0.0000 0.0000
vt 0.9167 0.0417 0.0000
vt 1.0000 0.0000 0.0000
vt 1.0000 0.0417 0.0000
vt 0.0833 0.0833 0.0000
vt 0.0000 0.0833 0.0000
vt 0.1667 0.0833 0.0000
vt 0.2500 0.0833 0.0000
vt 0.3333 0.0833 0.0000
vt 0.4167 0.0833 0.0000
vt 0.5000 0.0833 0.0000
vt 0.5833 0.0833 0.0000
vt 0.6667 0.0833 0.0000
vt 0.7500 0.0833 0.0000
vt 0.8333 0.0833 0.0000
vt 0.9167 0.0833 0.0000
vt 1.0000 0.0833 0.0000
vt 0.5833 0.1250 0.0000
vt 0.5000 0.1250 0.0000
vt 0.6667 0.1250 0.0000
vt 0.7500 0.1250 0.0000
vt 0.8333 0.1250 0.0000
vt 0.9167 0.1250 0.0000
vt 1.0000 0.1250 0.0000
vt 0.5833 0.1667 0.0000
vt 0.5000 0.1667 0.0000
vt 0.6667 0.1667 0.0000
vt 0.7500 0.1667 0.0000
vt 0.8333 0.1667 0.0000
vt 0.9167 0.1667 0.0000
vt 1.0000 0.1667 0.0000
vt 0.0000 0.1667 0.0000
vt 0.0833 0.1667 0.0000
vt 0.0833 0.2083 0.0000
vt 0.0000 0.2083 0.0000
vt 0.1667 0.1667 0.0000
vt 0.1667 0.2083 0.0000
vt 0.2500 0.1667 0.0000
vt 0.2500 0.2083 0.0000
vt 0.3333 0.1667 0.0000
vt 0.3333 0.2083 0.0000
vt 0.4167 0.1667 0.0000
vt 0.4167 0.2083 0.0000
vt 0.5000 0.2083 0.0000
vt 0.5833 0.2083 0.0000
vt 0.6667 0.2083 0.0000
vt 0.7500 0.2083 0.0000
vt 0.8333 0.2083 0.0000
vt 0.9167 0.2083 0.0000
vt 1.0000 0.2083 0.0000
vt 0.0833 0.2500 0.0000
vt 0.0000 0.2500 0.0000
vt 0.1667 0.2500 0.0000
vt 0.2500 0.2500 0.0000
vt 0.3333 0.2500 0.0000
vt 0.4167 0.2500 0.0000
vt 0.5000 0.2500 0.0000
vt 0.5833 0.2500 0.0000
vt 0.6667 0.2500 0.0000
vt 0.7500 0.2500 0.0000
vt 0.8333 0.2500 0.0000
vt 0.9167 0.2500 0.0000
vt 1.0000 0.2500 0.0000
vt 0.5833 0.2917 0.0000
vt 0.5000 0.2917 0.0000
vt 0.6667 0.2917 0.0000
vt 0.7500 0.2917 0.0000
vt 0.8333 0.2917 0.0000
vt 0.9167 0.2917 0.0000
vt 1.0000 0.2917 0.0000
vt 0.5833 0.3333 0.0000
vt 0.5000 0.3333 0.0000
vt 0.6667 0.3333 0.0000
vt 0.7500 0.3333 0.0000
vt 0.8333 0.3333 0.0000
vt 0.9167 0.3333 0.0000
vt 1.0000 0.3333 0.0000
vt 0.5833 0.3750 0.0000
vt 0.5000 0.3750 0.0000
vt 0.6667 0.3750 0.0000
vt 0.7500 0.3750 0.0000
vt 0.8333 0.3750 0.0000
vt 0.9167 0.3750 0.0000
vt 1.0000 0.3750 0.0000
vt 0.5000 0.6250 0.0000
vt 0.5833 0.6250 0.0000
vt 0.5833 0.6667 0.0000
vt 0.5000 0.6667 0.0000
vt 0.6667 0.6250 0.0000
vt 0.6667 0.6667 0.0000
vt 0.7500 0.6250 0.0000
vt 0.7500 0.6667 0.0000
vt 0.8333 0.6250 0.0000
vt 0.8333 0.6667 0.0000
vt 0.9167 0.6250 0.0000
vt 0.9167 0.6667 0.0000
vt 1.0000 0.6250 0.0000
vt 1.0000 0.6667 0.0000
vt 0.5833 0.7083 0.0000
vt 0.5000 0.7083 0.0000
vt 0.6667 0.7083 0.0000
vt 0.7500 0.7083 0.0000
vt 0.8333 0.7083 0.0000
vt 0.9167 0.7083 0.0000
vt 1.0000 0.7083 0.0000
vt 0.5833 0.7500 0.0000
vt 0.5000 0.7500 0.0000
vt 0.6667 0.7500 0.0000
vt 0.7500 0.7500 0.0000
vt 0.8333 0.7500 0.0000
vt 0.9167 0.7500 0.0000
vt 1.0000 0.7500 0.0000
vt 0.0000 0.7500 0.0000
vt 0.0833 0.7500 0.0000
vt 0.0833 0.7917 0.0000
vt 0.0000 0.7917 0.0000
vt 0.1667 0.7500 0.0000
vt 0.1667 0.7917 0.0000
vt 0.2500 0.7500 0.0000
vt 0.2500 0.7917 0.0000
vt 0.3333 0.7500 0.0000
vt 0.3333 0.7917 0.0000
vt 0.4167 0.7500 0.0000
vt 0.4167 0.7917 0.0000
vt 0.5000 0.7917 0.0000
vt 0.5833 0.7917 0.0000
vt 0.6667 0.7917 0.0000
vt 0.7500 0.7917 0.0000
vt 0.8333 0.7917 0.0000
vt 0.9167 0.7917 0.0000
vt 1.0000 0.7917 0.0000
vt 0.0833 0.8333 0.0000
vt 0.0000 0.8333 0.0000
vt 0.1667 0.8333 0.0000
vt 0.2500 0.8333 0.0000
vt 0.3333 0.8333 0.0000
vt 0.4167 0.8333 0.0000
vt 0.5000 0.8333 0.0000
vt 0.5833 0.8333 0.0000
vt 0.6667 0.8333 0.0000
vt 0.7500 0.8333 0.0000
vt 0.8333 0.8333 0.0000
vt 0.9167 0.8333 0.0000
vt 1.0000 0.8333 0.0000
vt 0.5833 0.8750 0.0000
vt 0.5000 0.8750 0.0000
vt 0.6667 0.8750 0.0000
vt 0.7500 0.8750 0.0000
vt 0.8333 0.8750 0.0000
vt 0.9167 0.8750 0.0000
vt 1.0000 0.8750 0.0000
vt 0.5833 0.9167 0.0000
vt 0.5000 0.9167 0.0000
vt 0.6667 0.9167 0.0000
vt 0.7500 0.9167 0.0000
vt 0.8333 0.9167 0.0000
vt 0.9167 0.9167 0.0000
vt 1.0000 0.9167 0.0000
vt 0.0000 0.9167 0.0000
vt 0.0833 0.9167 0.0000
vt 0.0833 0.9583 0.0000
vt 0.0000 0.9583 0.0000
vt 0.1667 0.9167 0.0000
vt 0.1667 0.9583 0.0000
vt 0.2500 0.9167 0.0000
vt 0.2500 0.9583 0.0000
vt 0.3333 0.9167 0.0000
vt 0.3333 0.9583 0.0000
vt 0.4167 0.9167 0.0000
vt 0.4167 0.9583 0.0000
vt 0.5000 0.9583 0.0000
vt 0.5833 0.9583 0.0000
vt 0.6667 0.9583 0.0000
vt 0.7500 0.9583 0.0000
vt 0.8333 0.9583 0.0000
vt 0.9167 0.9583 0.0000
vt 1.0000 0.9583 0.0000
vt 0.0833 1.0000 0.0000
vt 0.0000 1.0000 0.0000
vt 0.1667 1.0000 0.0000
vt 0.2500 1.0000 0.0000
vt 0.3333 1.0000 0.0000
vt 0.4167 1.0000 0.0000
vt 0.5000 1.0000 0.0000
vt 0.5833 1.0000 0.0000
vt 0.6667 1.0000 0.0000
vt 0.7500 1.0000 0.0000
vt 0.8333 1.0000 0.0000
vt 0.9167 1.0000 0.0000
vt 1.0000 1.0000 0.0000
# 212 texture coords

o Torus003
g Torus003
usemtl wire_087225143
s 1
f 1/1/1 2/2/2 3/3/3 4/4/4 
f 2/2/2 5/5/5 6/6/6 3/3/3 
f 5/5/5 7/7/7 8/8/8 6/6/6 
f 7/7/7 9/9/9 10/10/10 8/8/8 
f 9/9/9 11/11/11 12/12/12 10/10/10 
f 11/11/11 13/13/13 14/14/14 12/12/12 
f 13/13/13 15/15/15 16/16/16 14/14/14 
f 15/15/15 17/17/17 18/18/18 16/16/16 
f 17/17/17 19/19/19 20/20/20 18/18/18 
f 19/19/19 21/21/21 22/22/22 20/20/20 
f 21/21/21 23/23/23 24/24/24 22/22/22 
f 23/23/23 1/25/1 4/26/4 24/24/24 
f 4/4/4 3/3/3 25/27/25 26/28/26 
f 3/3/3 6/6/6 27/29/27 25/27/25 
f 6/6/6 8/8/8 28/30/28 27/29/27 
f 8/8/8 10/10/10 29/31/29 28/30/28 
f 10/10/10 12/12/12 30/32/30 29/31/29 
f 12/12/12 14/14/14 31/33/31 30/32/30 
f 14/14/14 16/16/16 32/34/32 31/33/31 
f 16/16/16 18/18/18 33/35/33 32/34/32 
f 18/18/18 20/20/20 34/36/34 33/35/33 
f 20/20/20 22/22/22 35/37/35 34/36/34 
f 22/22/22 24/24/24 36/38/36 35/37/35 
f 24/24/24 4/26/4 26/39/26 36/38/36 
f 31/33/31 32/34/32 37/40/37 38/41/38 
f 32/34/32 33/35/33 39/42/39 37/40/37 
f 33/35/33 34/36/34 40/43/40 39/42/39 
f 34/36/34 35/37/35 41/44/41 40/43/40 
f 35/37/35 36/38/36 42/45/42 41/44/41 
f 36/38/36 26/39/26 43/46/43 42/45/42 
f 38/41/38 37/40/37 44/47/44 45/48/45 
f 37/40/37 39/42/39 46/49/46 44/47/44 
f 39/42/39 40/43/40 47/50/47 46/49/46 
f 40/43/40 41/44/41 48/51/48 47/50/47 
f 41/44/41 42/45/42 49/52/49 48/51/48 
f 42/45/42 43/46/43 50/53/50 49/52/49 
f 50/54/50 51/55/51 52/56/52 53/57/53 
f 51/55/51 54/58/54 55/59/55 52/56/52 
f 54/58/54 56/60/56 57/61/57 55/59/55 
f 56/60/56 58/62/58 59/63/59 57/61/57 
f 58/62/58 60/64/60 61/65/61 59/63/59 
f 60/64/60 45/48/45 62/66/62 61/65/61 
f 45/48/45 44/47/44 63/67/63 62/66/62 
f 44/47/44 46/49/46 64/68/64 63/67/63 
f 46/49/46 47/50/47 65/69/65 64/68/64 
f 47/50/47 48/51/48 66/70/66 65/69/65 
f 48/51/48 49/52/49 67/71/67 66/70/66 
f 49/52/49 50/53/50 53/72/53 67/71/67 
f 53/57/53 52/56/52 68/73/68 69/74/69 
f 52/56/52 55/59/55 70/75/70 68/73/68 
f 55/59/55 57/61/57 71/76/71 70/75/70 
f 57/61/57 59/63/59 72/77/72 71/76/71 
f 59/63/59 61/65/61 73/78/73 72/77/72 
f 61/65/61 62/66/62 74/79/74 73/78/73 
f 62/66/62 63/67/63 75/80/75 74/79/74 
f 63/67/63 64/68/64 76/81/76 75/80/75 
f 64/68/64 65/69/65 77/82/77 76/81/76 
f 65/69/65 66/70/66 78/83/78 77/82/77 
f 66/70/66 67/71/67 79/84/79 78/83/78 
f 67/71/67 53/72/53 69/85/69 79/84/79 
f 74/79/74 75/80/75 80/86/80 81/87/81 
f 75/80/75 76/81/76 82/88/82 80/86/80 
f 76/81/76 77/82/77 83/89/83 82/88/82 
f 77/82/77 78/83/78 84/90/84 83/89/83 
f 78/83/78 79/84/79 85/91/85 84/90/84 
f 79/84/79 69/85/69 86/92/86 85/91/85 
f 81/87/81 80/86/80 87/93/87 88/94/88 
f 80/86/80 82/88/82 89/95/89 87/93/87 
f 82/88/82 83/89/83 90/96/90 89/95/89 
f 83/89/83 84/90/84 91/97/91 90/96/90 
f 84/90/84 85/91/85 92/98/92 91/97/91 
f 85/91/85 86/92/86 93/99/93 92/98/92 
f 88/94/88 87/93/87 94/100/94 95/101/95 
f 87/93/87 89/95/89 96/102/96 94/100/94 
f 89/95/89 90/96/90 97/103/97 96/102/96 
f 90/96/90 91/97/91 98/104/98 97/103/97 
f 91/97/91 92/98/92 99/105/99 98/104/98 
f 92/98/92 93/99/93 100/106/100 99/105/99 
f 101/107/101 102/108/102 103/109/103 104/110/104 
f 102/108/102 105/111/105 106/112/106 103/109/103 
f 105/111/105 107/113/107 108/114/108 106/112/106 
f 107/113/107 109/115/109 110/116/110 108/114/108 
f 109/115/109 111/117/111 112/118/112 110/116/110 
f 111/117/111 113/119/113 114/120/114 112/118/112 
f 104/110/104 103/109/103 115/121/115 116/122/116 
f 103/109/103 106/112/106 117/123/117 115/121/115 
f 106/112/106 108/114/108 118/124/118 117/123/117 
f 108/114/108 110/116/110 119/125/119 118/124/118 
f 110/116/110 112/118/112 120/126/120 119/125/119 
f 112/118/112 114/120/114 121/127/121 120/126/120 
f 116/122/116 115/121/115 122/128/122 123/129/123 
f 115/121/115 117/123/117 124/130/124 122/128/122 
f 117/123/117 118/124/118 125/131/125 124/130/124 
f 118/124/118 119/125/119 126/132/126 125/131/125 
f 119/125/119 120/126/120 127/133/127 126/132/126 
f 120/126/120 121/127/121 128/134/128 127/133/127 
f 128/135/128 129/136/129 130/137/130 131/138/131 
f 129/136/129 132/139/132 133/140/133 130/137/130 
f 132/139/132 134/141/134 135/142/135 133/140/133 
f 134/141/134 136/143/136 137/144/137 135/142/135 
f 136/143/136 138/145/138 139/146/139 137/144/137 
f 138/145/138 123/129/123 140/147/140 139/146/139 
f 123/129/123 122/128/122 141/148/141 140/147/140 
f 122/128/122 124/130/124 142/149/142 141/148/141 
f 124/130/124 125/131/125 143/150/143 142/149/142 
f 125/131/125 126/132/126 144/151/144 143/150/143 
f 126/132/126 127/133/127 145/152/145 144/151/144 
f 127/133/127 128/134/128 131/153/131 145/152/145 
f 131/138/131 130/137/130 146/154/146 147/155/147 
f 130/137/130 133/140/133 148/156/148 146/154/146 
f 133/140/133 135/142/135 149/157/149 148/156/148 
f 135/142/135 137/144/137 150/158/150 149/157/149 
f 137/144/137 139/146/139 151/159/151 150/158/150 
f 139/146/139 140/147/140 152/160/152 151/159/151 
f 140/147/140 141/148/141 153/161/153 152/160/152 
f 141/148/141 142/149/142 154/162/154 153/161/153 
f 142/149/142 143/150/143 155/163/155 154/162/154 
f 143/150/143 144/151/144 156/164/156 155/163/155 
f 144/151/144 145/152/145 157/165/157 156/164/156 
f 145/152/145 131/153/131 147/166/147 157/165/157 
f 152/160/152 153/161/153 158/167/158 159/168/159 
f 153/161/153 154/162/154 160/169/160 158/167/158 
f 154/162/154 155/163/155 161/170/161 160/169/160 
f 155/163/155 156/164/156 162/171/162 161/170/161 
f 156/164/156 157/165/157 163/172/163 162/171/162 
f 157/165/157 147/166/147 164/173/164 163/172/163 
f 159/168/159 158/167/158 165/174/165 166/175/166 
f 158/167/158 160/169/160 167/176/167 165/174/165 
f 160/169/160 161/170/161 168/177/168 167/176/167 
f 161/170/161 162/171/162 169/178/169 168/177/168 
f 162/171/162 163/172/163 170/179/170 169/178/169 
f 163/172/163 164/173/164 171/180/171 170/179/170 
f 171/181/171 172/182/172 173/183/173 174/184/174 
f 172/182/172 175/185/175 176/186/176 173/183/173 
f 175/185/175 177/187/177 178/188/178 176/186/176 
f 177/187/177 179/189/179 180/190/180 178/188/178 
f 179/189/179 181/191/181 182/192/182 180/190/180 
f 181/191/181 166/175/166 183/193/183 182/192/182 
f 166/175/166 165/174/165 184/194/184 183/193/183 
f 165/174/165 167/176/167 185/195/185 184/194/184 
f 167/176/167 168/177/168 186/196/186 185/195/185 
f 168/177/168 169/178/169 187/197/187 186/196/186 
f 169/178/169 170/179/170 188/198/188 187/197/187 
f 170/179/170 171/180/171 174/199/174 188/198/188 
f 174/184/174 173/183/173 2/200/2 1/201/1 
f 173/183/173 176/186/176 5/202/5 2/200/2 
f 176/186/176 178/188/178 7/203/7 5/202/5 
f 178/188/178 180/190/180 9/204/9 7/203/7 
f 180/190/180 182/192/182 11/205/11 9/204/9 
f 182/192/182 183/193/183 13/206/13 11/205/11 
f 183/193/183 184/194/184 15/207/15 13/206/13 
f 184/194/184 185/195/185 17/208/17 15/207/15 
f 185/195/185 186/196/186 19/209/19 17/208/17 
f 186/196/186 187/197/187 21/210/21 19/209/19 
f 187/197/187 188/198/188 23/211/23 21/210/21 
f 188/198/188 174/199/174 1/212/1 23/211/23 
# 156 polygons

