# Blender 3.6.4
# www.blender.org
mtllib tuboAmarilloPlastico.mtl
o Cylinder
v 25.862310 0.857168 0.187773
v -25.851202 1.144188 -0.187692
v 25.860786 0.837940 0.383028
v -25.852726 1.124960 0.007562
v 25.859106 0.780996 0.570778
v -25.854406 1.068016 0.195312
v 25.857336 0.688523 0.743807
v -25.856176 0.975543 0.368342
v 25.855545 0.564076 0.895467
v -25.857967 0.851096 0.520002
v 25.853800 0.412437 1.019929
v -25.859713 0.699457 0.644464
v 25.852167 0.239433 1.112411
v -25.861345 0.526453 0.736945
v 25.850712 0.051713 1.169357
v -25.862801 0.338732 0.793891
v 25.849489 -0.143510 1.188580
v -25.864023 0.143510 0.813115
v 25.848545 -0.338732 1.169341
v -25.864967 -0.051713 0.793876
v 25.847918 -0.526453 1.112380
v -25.865595 -0.239433 0.736914
v 25.847630 -0.699457 1.019885
v -25.865883 -0.412437 0.644419
v 25.847691 -0.851096 0.895410
v -25.865822 -0.564076 0.519945
v 25.848101 -0.975543 0.743740
v -25.865412 -0.688523 0.368275
v 25.848845 -1.068016 0.570703
v -25.864668 -0.780996 0.195238
v 25.849892 -1.124960 0.382949
v -25.863621 -0.837940 0.007483
v 25.851202 -1.144188 0.187692
v -25.862310 -0.857168 -0.187773
v 25.852726 -1.124960 -0.007562
v -25.860786 -0.837940 -0.383028
v 25.854406 -1.068016 -0.195312
v -25.859106 -0.780996 -0.570778
v 25.856176 -0.975543 -0.368342
v -25.857336 -0.688523 -0.743807
v 25.857967 -0.851096 -0.520002
v -25.855545 -0.564076 -0.895467
v 25.859713 -0.699457 -0.644464
v -25.853800 -0.412437 -1.019929
v 25.861345 -0.526453 -0.736945
v -25.852167 -0.239433 -1.112411
v 25.862801 -0.338732 -0.793891
v -25.850712 -0.051713 -1.169357
v 25.864023 -0.143510 -0.813115
v -25.849489 0.143510 -1.188580
v 25.864967 0.051713 -0.793876
v -25.848545 0.338732 -1.169341
v 25.865595 0.239433 -0.736914
v -25.847918 0.526453 -1.112380
v 25.865883 0.412437 -0.644419
v -25.847630 0.699457 -1.019885
v 25.865822 0.564076 -0.519945
v -25.847691 0.851096 -0.895410
v 25.865412 0.688523 -0.368275
v -25.848101 0.975543 -0.743740
v 25.864668 0.780996 -0.195238
v -25.848845 1.068016 -0.570703
v 25.863621 0.837940 -0.007483
v -25.849892 1.124960 -0.382949
vn 0.0048 0.9952 0.0980
vn 0.0032 0.9569 0.2903
vn 0.0015 0.8819 0.4714
vn -0.0003 0.7731 0.6343
vn -0.0021 0.6345 0.7730
vn -0.0038 0.4715 0.8819
vn -0.0053 0.2903 0.9569
vn -0.0067 0.0980 0.9952
vn -0.0078 -0.0980 0.9952
vn -0.0086 -0.2903 0.9569
vn -0.0090 -0.4715 0.8818
vn -0.0091 -0.6345 0.7729
vn -0.0089 -0.7731 0.6343
vn -0.0083 -0.8819 0.4713
vn -0.0074 -0.9569 0.2902
vn -0.0062 -0.9952 0.0980
vn -0.0048 -0.9952 -0.0980
vn -0.0032 -0.9569 -0.2903
vn -0.0015 -0.8819 -0.4714
vn 0.0003 -0.7731 -0.6343
vn 0.0021 -0.6345 -0.7730
vn 0.0038 -0.4715 -0.8819
vn 0.0053 -0.2903 -0.9569
vn 0.0067 -0.0980 -0.9952
vn 0.0078 0.0980 -0.9952
vn 0.0086 0.2903 -0.9569
vn 0.0090 0.4715 -0.8818
vn 0.0091 0.6345 -0.7729
vn 0.0089 0.7731 -0.6343
vn 0.0083 0.8819 -0.4713
vn 0.0074 0.9569 -0.2902
vn 0.0062 0.9952 -0.0980
vt 0.500000 0.000000
vt 0.468750 1.000000
vt 0.468750 0.000000
vt 0.437500 1.000000
vt 0.437500 0.000000
vt 0.406250 1.000000
vt 0.406250 0.000000
vt 0.375000 1.000000
vt 0.375000 0.000000
vt 0.343750 1.000000
vt 0.343750 0.000000
vt 0.312500 1.000000
vt 0.312500 0.000000
vt 0.281250 1.000000
vt 0.281250 0.000000
vt 0.250000 1.000000
vt 0.250000 0.000000
vt 0.218750 1.000000
vt 0.218750 0.000000
vt 0.187500 1.000000
vt 0.187500 0.000000
vt 0.156250 1.000000
vt 0.156250 0.000000
vt 0.125000 1.000000
vt 0.125000 0.000000
vt 0.093750 1.000000
vt 0.093750 0.000000
vt 0.062500 1.000000
vt 0.062500 0.000000
vt 0.031250 1.000000
vt 0.031250 0.000000
vt 0.000000 1.000000
vt 0.000000 0.000000
vt 1.000000 0.000000
vt 0.968750 1.000000
vt 0.968750 0.000000
vt 0.937500 1.000000
vt 0.937500 0.000000
vt 0.906250 1.000000
vt 0.906250 0.000000
vt 0.875000 1.000000
vt 0.875000 0.000000
vt 0.843750 1.000000
vt 0.843750 0.000000
vt 0.812500 1.000000
vt 0.812500 0.000000
vt 0.781250 1.000000
vt 0.781250 0.000000
vt 0.750000 1.000000
vt 0.750000 0.000000
vt 0.718750 1.000000
vt 0.718750 0.000000
vt 0.687500 1.000000
vt 0.687500 0.000000
vt 0.656250 1.000000
vt 0.656250 0.000000
vt 0.625000 1.000000
vt 0.625000 0.000000
vt 0.593750 1.000000
vt 0.593750 0.000000
vt 0.562500 1.000000
vt 0.562500 0.000000
vt 0.531250 1.000000
vt 0.531250 0.000000
vt 0.500000 1.000000
vt 1.000000 1.000000
s 0
usemtl Material.001
f 1/1/1 4/2/1 3/3/1
f 3/3/2 6/4/2 5/5/2
f 5/5/3 8/6/3 7/7/3
f 7/7/4 10/8/4 9/9/4
f 9/9/5 12/10/5 11/11/5
f 11/11/6 14/12/6 13/13/6
f 13/13/7 16/14/7 15/15/7
f 15/15/8 18/16/8 17/17/8
f 17/17/9 20/18/9 19/19/9
f 19/19/10 22/20/10 21/21/10
f 21/21/11 24/22/11 23/23/11
f 23/23/12 26/24/12 25/25/12
f 25/25/13 28/26/13 27/27/13
f 27/27/14 30/28/14 29/29/14
f 29/29/15 32/30/15 31/31/15
f 31/31/16 34/32/16 33/33/16
f 33/34/17 36/35/17 35/36/17
f 35/36/18 38/37/18 37/38/18
f 37/38/19 40/39/19 39/40/19
f 39/40/20 42/41/20 41/42/20
f 41/42/21 44/43/21 43/44/21
f 43/44/22 46/45/22 45/46/22
f 45/46/23 48/47/23 47/48/23
f 47/48/24 50/49/24 49/50/24
f 49/50/25 52/51/25 51/52/25
f 51/52/26 54/53/26 53/54/26
f 53/54/27 56/55/27 55/56/27
f 55/56/28 58/57/28 57/58/28
f 57/58/29 60/59/29 59/60/29
f 59/60/30 62/61/30 61/62/30
f 61/62/31 64/63/31 63/64/31
f 63/64/32 2/65/32 1/1/32
f 1/1/1 2/65/1 4/2/1
f 3/3/2 4/2/2 6/4/2
f 5/5/3 6/4/3 8/6/3
f 7/7/4 8/6/4 10/8/4
f 9/9/5 10/8/5 12/10/5
f 11/11/6 12/10/6 14/12/6
f 13/13/7 14/12/7 16/14/7
f 15/15/8 16/14/8 18/16/8
f 17/17/9 18/16/9 20/18/9
f 19/19/10 20/18/10 22/20/10
f 21/21/11 22/20/11 24/22/11
f 23/23/12 24/22/12 26/24/12
f 25/25/13 26/24/13 28/26/13
f 27/27/14 28/26/14 30/28/14
f 29/29/15 30/28/15 32/30/15
f 31/31/16 32/30/16 34/32/16
f 33/34/17 34/66/17 36/35/17
f 35/36/18 36/35/18 38/37/18
f 37/38/19 38/37/19 40/39/19
f 39/40/20 40/39/20 42/41/20
f 41/42/21 42/41/21 44/43/21
f 43/44/22 44/43/22 46/45/22
f 45/46/23 46/45/23 48/47/23
f 47/48/24 48/47/24 50/49/24
f 49/50/25 50/49/25 52/51/25
f 51/52/26 52/51/26 54/53/26
f 53/54/27 54/53/27 56/55/27
f 55/56/28 56/55/28 58/57/28
f 57/58/29 58/57/29 60/59/29
f 59/60/30 60/59/30 62/61/30
f 61/62/31 62/61/31 64/63/31
f 63/64/32 64/63/32 2/65/32
